<?xml version="1.0" encoding="UTF-8"?>
<svg version="1.1" xmlns="http://www.w3.org/2000/svg" width="229" height="220">
<path d="M0 0 C2 1 2 1 2.640625 2.8984375 C2.94226563 4.12433594 2.94226563 4.12433594 3.25 5.375 C5.64860011 13.77612702 9.29503079 22.34491443 17 27 C20.22083033 27.77019856 21.95570092 27.55913513 24.875 25.99609375 C32.59035091 20.70685904 38.05917142 12.82297858 43 5 C43.99 5.495 43.99 5.495 45 6 C44.5359375 7.5159375 44.5359375 7.5159375 44.0625 9.0625 C41.77063592 18.3794257 40.39748002 28.30635116 45 37 C47.5510227 39.5510227 48.63054187 39.38479488 52.1875 39.5 C60.24197062 39.40272378 66.78802124 36.24833582 74 33 C75.6629862 32.32420481 77.32813413 31.65351873 79 31 C77.49519888 34.38192416 75.50640394 36.92826099 73.125 39.75 C68.11812514 45.9381702 64.15487986 51.79136763 64 60 C65.37154572 62.93519718 66.38764227 64.62553664 69.171875 66.328125 C76.06077998 68.79143042 82.55267019 69.56387649 89.8125 69.82421875 C93 70 93 70 96 71 C94.40376804 74.19246392 91.06839396 74.63851941 87.875 75.8125 C82.26236771 77.94692789 77.73852425 80.25325989 73 84 C72.34 84 71.68 84 71 84 C68.75910339 88.34997576 68.83954735 91.27529991 70 96 C72.68479163 100.67191118 75.58688981 103.54386868 79.9375 106.6875 C81.46697266 107.80705078 81.46697266 107.80705078 83.02734375 108.94921875 C85.63321631 110.74696263 88.26266169 112.41204131 91 114 C90.67 114.66 90.34 115.32 90 116 C89.28457031 115.855625 88.56914062 115.71125 87.83203125 115.5625 C72.94999316 112.63535886 72.94999316 112.63535886 59 117 C58.34 117 57.68 117 57 117 C55.88232777 127.20097667 58.20711192 134.19375229 62.37109375 143.34765625 C63.56639524 146.0277687 64.36942104 148.19429091 65 151 C64.52691406 150.63648438 64.05382812 150.27296875 63.56640625 149.8984375 C52.01189593 140.54026562 52.01189593 140.54026562 38.4375 135.5 C34.92938707 135.75370644 34.92938707 135.75370644 32.25 137.875 C25.90381369 146.68914765 26.35145927 157.55317605 26 168 C25.34 168 24.68 168 24 168 C23.62488281 167.01 23.24976562 166.02 22.86328125 165 C18.85972774 154.52164348 18.85972774 154.52164348 13 145 C12.38125 144.175 11.7625 143.35 11.125 142.5 C7.93491382 140.24817446 5.81578239 140.47368519 2 141 C-6.95475292 145.47737646 -12.56442356 154.93750364 -18 163 C-19.2606182 159.21814539 -18.63913687 156.86419713 -18 152.9375 C-16.90075877 145.55408519 -15.83514844 136.66376249 -20 130 C-25.80677207 126.97966496 -30.89836098 128.43454369 -37 130 C-41.09285173 131.4798736 -45.03734069 133.20558824 -49 135 C-50.66318268 135.67531149 -52.32877112 136.34485402 -54 137 C-54 136.01 -54 135.02 -54 134 C-52.7315625 133.01 -52.7315625 133.01 -51.4375 132 C-44.7145957 126.68235836 -40.22836134 118.60801117 -39.0234375 110.16015625 C-38.98778891 106.87454465 -39.722143 105.34904003 -42 103 C-47.57556597 99.43529389 -53.44775192 99.03675271 -59.875 98.3125 C-61.47988281 98.11817383 -61.47988281 98.11817383 -63.1171875 97.91992188 C-65.7437755 97.60332421 -68.3711376 97.29701243 -71 97 C-68.82239724 93.73359586 -68.52533988 93.59446847 -65 92.625 C-57.6193196 90.33936994 -49.7154908 87.38872946 -45 81 C-43.71136552 76.83088845 -43.53711332 74.92577337 -45.5 71 C-51.2413139 64.11042332 -57.30116679 57.89961107 -66 55 C-66 54.01 -66 53.02 -66 52 C-65.20078125 52.144375 -64.4015625 52.28875 -63.578125 52.4375 C-53.00390147 54.22469271 -42.91287802 55.86292129 -33 51 C-30.56835944 46.13671889 -31.59375332 40.44460694 -33.01171875 35.40234375 C-35.36809128 28.60123035 -35.36809128 28.60123035 -38.73046875 22.26953125 C-39.14941406 21.52058594 -39.56835938 20.77164063 -40 20 C-39.67 19.01 -39.34 18.02 -39 17 C-38.47792969 17.50789063 -37.95585938 18.01578125 -37.41796875 18.5390625 C-31.74831388 23.84133168 -25.94588463 27.56861426 -19 31 C-18.34 31.33 -17.68 31.66 -17 32 C-12.85281753 32.46949236 -10.74312663 32.50667725 -7.25 30.125 C-1.06045045 21.52840341 -1.00872624 10.22967079 0 0 Z " fill="#FDCA09" transform="translate(102,26)"/>
<path d="M0 0 C8.72749134 5.70939411 13.5383313 15.08997267 16.703125 24.8046875 C18.70806734 35.83187037 17.36542108 47.86595679 11.5078125 57.5078125 C4.44162402 67.04080102 -5.07419081 74.17596294 -16.8671875 76.62890625 C-28.63818867 78.24629572 -39.10557595 75.51823049 -49.1484375 69.3125 C-49.73109375 68.84972656 -50.31375 68.38695312 -50.9140625 67.91015625 C-50.9140625 67.25015625 -50.9140625 66.59015625 -50.9140625 65.91015625 C-51.873125 65.50796875 -51.873125 65.50796875 -52.8515625 65.09765625 C-54.9140625 63.91015625 -54.9140625 63.91015625 -55.9140625 60.91015625 C-56.9040625 60.58015625 -57.8940625 60.25015625 -58.9140625 59.91015625 C-60.484375 57.21484375 -60.484375 57.21484375 -62.0390625 53.78515625 C-62.55726562 52.66882813 -63.07546875 51.5525 -63.609375 50.40234375 C-67.36424691 40.35187821 -67.33367797 28.54270609 -63.26171875 18.6328125 C-60.882674 13.82645253 -58.23148051 9.13455307 -54.9140625 4.91015625 C-54.2540625 4.91015625 -53.5940625 4.91015625 -52.9140625 4.91015625 C-52.9140625 4.25015625 -52.9140625 3.59015625 -52.9140625 2.91015625 C-36.42082682 -9.61182312 -17.7184381 -10.08866169 0 0 Z " fill="#FEA007" transform="translate(138.9140625,75.08984375)"/>
<path d="M0 0 C0.66 0.33 1.32 0.66 2 1 C1.566875 2.546875 1.566875 2.546875 1.125 4.125 C-0.44128605 10.32301766 -1.16438569 16.6706661 -2 23 C-2.66 23 -3.32 23 -4 23 C-4 22.34 -4 21.68 -4 21 C-6.33075929 21.95865509 -6.33075929 21.95865509 -8 25 C-8.99 25.33 -9.98 25.66 -11 26 C-11 24.02 -11 22.04 -11 20 C-12.98 20.33 -14.96 20.66 -17 21 C-16.34 20.38125 -15.68 19.7625 -15 19.125 C-9.27982686 13.40482686 -4.31470536 6.83161682 0 0 Z " fill="#F8CC19" transform="translate(145,31)"/>
<path d="M0 0 C0.66 0.33 1.32 0.66 2 1 C1.91878906 1.59683594 1.83757812 2.19367188 1.75390625 2.80859375 C1.08838641 11.949305 4.48536531 19.05304949 8.24389648 27.15991211 C9.03414239 29.08309048 9.543526 30.9739943 10 33 C9.52691406 32.63648438 9.05382812 32.27296875 8.56640625 31.8984375 C4.11406876 28.51361952 -0.42365712 25.33867518 -5.1171875 22.296875 C-7 21 -7 21 -9 19 C-7.68 18.67 -6.36 18.34 -5 18 C-5.66 16.35 -6.32 14.7 -7 13 C-6.01 13 -5.02 13 -4 13 C-3.67 13.66 -3.34 14.32 -3 15 C-2.01 14.67 -1.02 14.34 0 14 C0 9.38 0 4.76 0 0 Z " fill="#FACE20" transform="translate(157,144)"/>
<path d="M0 0 C-1.54666561 3.46388652 -3.61390092 6.18623827 -6 9.125 C-6.70125 9.99382812 -7.4025 10.86265625 -8.125 11.7578125 C-10 14 -10 14 -12 16 C-12.33 14.35 -12.66 12.7 -13 11 C-12.34 11 -11.68 11 -11 11 C-10.67 9.68 -10.34 8.36 -10 7 C-12.99324263 8.0975223 -13.84610901 8.67682892 -15.25 11.625 C-15.4975 12.40875 -15.745 13.1925 -16 14 C-16.99 13.67 -17.98 13.34 -19 13 C-19.33 12.34 -19.66 11.68 -20 11 C-22.35599235 10.53248212 -22.35599235 10.53248212 -25.0625 10.375 C-25.98160156 10.30023438 -26.90070313 10.22546875 -27.84765625 10.1484375 C-28.55792969 10.09945312 -29.26820313 10.05046875 -30 10 C-30 9.67 -30 9.34 -30 9 C-29.20078125 8.91363281 -28.4015625 8.82726562 -27.578125 8.73828125 C-18.65251233 7.59638949 -7.93565664 0 0 0 Z " fill="#F8D035" transform="translate(181,57)"/>
<path d="M0 0 C2 1 2 1 2.640625 2.8984375 C2.84171875 3.71570313 3.0428125 4.53296875 3.25 5.375 C4.94589785 11.44176858 7.85599983 16.57801168 11 22 C11.33 22.66 11.66 23.32 12 24 C11.01 23.67 10.02 23.34 9 23 C9 22.34 9 21.68 9 21 C8.01 21 7.02 21 6 21 C6 20.01 6 19.02 6 18 C4.02 18.33 2.04 18.66 0 19 C-2.69948658 13.60102685 -0.83814202 5.7622264 0 0 Z " fill="#FAC90A" transform="translate(102,26)"/>
<path d="M0 0 C-0.75 4.75 -0.75 4.75 -3 7 C-1.7934375 7.185625 -1.7934375 7.185625 -0.5625 7.375 C0.283125 7.58125 1.12875 7.7875 2 8 C2.33 8.66 2.66 9.32 3 10 C-3.93 9.34 -10.86 8.68 -18 8 C-15.79874029 4.69811044 -15.2881545 4.49651603 -11.6875 3.4375 C-9.08105357 2.64131861 -6.59315179 1.83552945 -4.0625 0.8125 C-2 0 -2 0 0 0 Z " fill="#FACB15" transform="translate(49,115)"/>
<path d="M0 0 C2 2 2 2 2 5 C3.65 4.67 5.3 4.34 7 4 C7.33 3.01 7.66 2.02 8 1 C8.66 1 9.32 1 10 1 C9.67 7.6 9.34 14.2 9 21 C8.34 21 7.68 21 7 21 C4.33333333 14.33333333 1.66666667 7.66666667 -1 1 C-0.67 0.67 -0.34 0.34 0 0 Z " fill="#F7CC17" transform="translate(119,173)"/>
<path d="M0 0 C0.33 0 0.66 0 1 0 C1.08226668 3.04386724 0.97608217 5.07175348 0 8 C-0.34227417 9.33106622 -0.67751743 10.66400079 -1 12 C-2.32 12 -3.64 12 -5 12 C-5 12.66 -5 13.32 -5 14 C-2.36 14 0.28 14 3 14 C0.05360001 15.96426666 -2.90087274 17.5345824 -6.0625 19.125 C-7.12597656 19.66382813 -8.18945312 20.20265625 -9.28515625 20.7578125 C-12 22 -12 22 -14 22 C-14 21.01 -14 20.02 -14 19 C-12.60009744 17.90739312 -11.19969649 16.81541918 -9.796875 15.7265625 C-5.4542144 11.55383209 -1.89962784 5.69888352 0 0 Z " fill="#F4D340" transform="translate(62,141)"/>
<path d="M0 0 C8.44646925 6.15034169 8.44646925 6.15034169 12 10 C11.01 10.33 10.02 10.66 9 11 C9 14.63 9 18.26 9 22 C6.2969296 17.94539441 4.90171011 13.58755665 3.21875 9.03125 C2.0778732 5.89551506 2.0778732 5.89551506 0 3 C0 2.01 0 1.02 0 0 Z " fill="#F7CF2A" transform="translate(62,43)"/>
<path d="M0 0 C6.93 0.99 13.86 1.98 21 3 C20.67 3.66 20.34 4.32 20 5 C17.03 5 14.06 5 11 5 C11 5.99 11 6.98 11 8 C10.484375 7.731875 9.96875 7.46375 9.4375 7.1875 C6.33598585 5.67650593 3.17737194 4.34427274 0 3 C0 2.01 0 1.02 0 0 Z " fill="#F7CD1E" transform="translate(36,78)"/>
<path d="M0 0 C0.33 0 0.66 0 1 0 C1.04898438 0.71027344 1.09796875 1.42054688 1.1484375 2.15234375 C1.22320312 3.07144531 1.29796875 3.99054688 1.375 4.9375 C1.44460937 5.85402344 1.51421875 6.77054688 1.5859375 7.71484375 C1.72257812 8.46894531 1.85921875 9.22304687 2 10 C2.66 10.33 3.32 10.66 4 11 C2.34832443 14.5786304 0.21713508 17.74820188 -2 21 C-3.24151016 17.27546952 -2.68079896 14.28953833 -2.125 10.5 C-2.03347656 9.82324219 -1.94195312 9.14648438 -1.84765625 8.44921875 C-1.43597399 5.50945951 -0.94091604 2.82274811 0 0 Z " fill="#F6D23F" transform="translate(86,168)"/>
<path d="M0 0 C5.28 0 10.56 0 16 0 C16 0.99 16 1.98 16 3 C14.2097939 3.67057887 12.41778511 4.3363469 10.625 5 C9.62726563 5.37125 8.62953125 5.7425 7.6015625 6.125 C5 7 5 7 3 7 C3 6.34 3 5.68 3 5 C3.99 5 4.98 5 6 5 C6 4.01 6 3.02 6 2 C3.03 1.505 3.03 1.505 0 1 C0 0.67 0 0.34 0 0 Z " fill="#F6D548" transform="translate(181,96)"/>
<path d="M0 0 C0.66 0 1.32 0 2 0 C1.67 6.6 1.34 13.2 1 20 C0.34 20 -0.32 20 -1 20 C-4 13.5 -4 13.5 -4 9 C-3.01 9.33 -2.02 9.66 -1 10 C-1.33 10.99 -1.66 11.98 -2 13 C-1.34 13 -0.68 13 0 13 C0 8.71 0 4.42 0 0 Z " fill="#F5D449" transform="translate(127,174)"/>
<path d="M0 0 C-0.95261719 0.66386719 -1.90523437 1.32773438 -2.88671875 2.01171875 C-4.15382743 2.90338782 -5.42074436 3.79532944 -6.6875 4.6875 C-7.31333984 5.12255859 -7.93917969 5.55761719 -8.58398438 6.00585938 C-12.43692112 8.72913927 -15.76308929 11.5650374 -19 15 C-17.87548273 12.0280615 -16.77706209 9.66559313 -15 7 C-14.34 7 -13.68 7 -13 7 C-13 6.34 -13 5.68 -13 5 C-10.91796875 3.45703125 -10.91796875 3.45703125 -8.1875 1.8125 C-7.29417969 1.26207031 -6.40085937 0.71164063 -5.48046875 0.14453125 C-3 -1 -3 -1 0 0 Z " fill="#F8A901" transform="translate(99,73)"/>
<path d="M0 0 C2.31 0.33 4.62 0.66 7 1 C6.01 2.485 6.01 2.485 5 4 C4.34 4 3.68 4 3 4 C2.01 7.3 1.02 10.6 0 14 C-0.33 14 -0.66 14 -1 14 C-1.125 8.25 -1.125 8.25 0 6 C-0.66 6 -1.32 6 -2 6 C-1.67 5.01 -1.34 4.02 -1 3 C-0.01 3 0.98 3 2 3 C1.34 2.67 0.68 2.34 0 2 C0 1.34 0 0.68 0 0 Z " fill="#F8D22B" transform="translate(170,106)"/>
<path d="M0 0 C-0.99 1.98 -1.98 3.96 -3 6 C-3.99 5.67 -4.98 5.34 -6 5 C-6.33 4.34 -6.66 3.68 -7 3 C-9.35599235 2.53248212 -9.35599235 2.53248212 -12.0625 2.375 C-12.98160156 2.30023438 -13.90070313 2.22546875 -14.84765625 2.1484375 C-15.55792969 2.09945312 -16.26820313 2.05046875 -17 2 C-17 1.67 -17 1.34 -17 1 C-14.91835982 0.63601378 -12.83459438 0.28416713 -10.75 -0.0625 C-9.00976562 -0.35833984 -9.00976562 -0.35833984 -7.234375 -0.66015625 C-4.37477376 -0.9606216 -2.66674071 -0.9439206 0 0 Z " fill="#FAD12C" transform="translate(168,65)"/>
<path d="M0 0 C1.32 0.66 2.64 1.32 4 2 C3.835 3.0725 3.67 4.145 3.5 5.25 C2.91189085 9.03028752 2.91189085 9.03028752 3 13 C2.34 13 1.68 13 1 13 C0.01 9.37 -0.98 5.74 -2 2 C-1.34 1.34 -0.68 0.68 0 0 Z " fill="#F7CD22" transform="translate(84,153)"/>
<path d="M0 0 C0.99 0.33 1.98 0.66 3 1 C2.67 2.65 2.34 4.3 2 6 C2.66 6 3.32 6 4 6 C3.34 7.32 2.68 8.64 2 10 C-0.31 7.69 -2.62 5.38 -5 3 C-4.34 2.67 -3.68 2.34 -3 2 C-2.01 2.33 -1.02 2.66 0 3 C0 2.01 0 1.02 0 0 Z " fill="#F9D239" transform="translate(52,84)"/>
<path d="M0 0 C1.43739513 -0.02712066 2.87493863 -0.04645067 4.3125 -0.0625 C5.51326172 -0.07990234 5.51326172 -0.07990234 6.73828125 -0.09765625 C9 0 9 0 12 1 C12 1.99 12 2.98 12 4 C13.32 3.67 14.64 3.34 16 3 C15.67 4.65 15.34 6.3 15 8 C14.5875 7.566875 14.175 7.13375 13.75 6.6875 C10.45827243 3.51333413 8.27516245 1.57459719 3.5625 1.625 C2.386875 1.74875 1.21125 1.8725 0 2 C0 1.34 0 0.68 0 0 Z " fill="#F6CF37" transform="translate(103,165)"/>
<path d="M0 0 C-1.55500981 3.81684226 -4.03595495 6.19195732 -7 9 C-7.33 8.01 -7.66 7.02 -8 6 C-8.66 5.34 -9.32 4.68 -10 4 C-8.71086513 3.32845067 -7.41859796 2.66291141 -6.125 2 C-5.40570313 1.62875 -4.68640625 1.2575 -3.9453125 0.875 C-2 0 -2 0 0 0 Z " fill="#F4D554" transform="translate(181,57)"/>
<path d="M0 0 C0.66 0.33 1.32 0.66 2 1 C2.6328125 3.06640625 2.6328125 3.06640625 3.125 5.5625 C3.29257813 6.38878906 3.46015625 7.21507812 3.6328125 8.06640625 C3.75398438 8.70449219 3.87515625 9.34257813 4 10 C2.68 10 1.36 10 0 10 C-0.33 10.99 -0.66 11.98 -1 13 C-0.67 8.71 -0.34 4.42 0 0 Z " fill="#F7D144" transform="translate(102,26)"/>
<path d="M0 0 C4.29 0.66 8.58 1.32 13 2 C13 2.33 13 2.66 13 3 C11.576875 3.2165625 11.576875 3.2165625 10.125 3.4375 C7.1065506 3.82935399 7.1065506 3.82935399 5 5 C2.375 4.0625 2.375 4.0625 0 3 C0 2.01 0 1.02 0 0 Z " fill="#F6DD5E" transform="translate(36,78)"/>
<path d="M0 0 C2.9719385 1.12451727 5.33440687 2.22293791 8 4 C7.67 4.66 7.34 5.32 7 6 C1.06 5.01 1.06 5.01 -5 4 C-5 3.67 -5 3.34 -5 3 C-3.35 2.67 -1.7 2.34 0 2 C0 1.34 0 0.68 0 0 Z " fill="#F3D34C" transform="translate(185,136)"/>
<path d="M0 0 C-0.33 0.66 -0.66 1.32 -1 2 C-1.99 2 -2.98 2 -4 2 C-4 2.66 -4 3.32 -4 4 C-6.31 4 -8.62 4 -11 4 C-8.54493529 0.31740294 -4.36534139 -2.1826707 0 0 Z " fill="#F5D34E" transform="translate(42,119)"/>
<path d="M0 0 C-0.66 2.64 -1.32 5.28 -2 8 C-2.33 6.68 -2.66 5.36 -3 4 C-3.99 4 -4.98 4 -6 4 C-6.33 3.01 -6.66 2.02 -7 1 C-4 0 -4 0 0 0 Z " fill="#F9CF21" transform="translate(168,74)"/>
<path d="M0 0 C2.64 1.98 5.28 3.96 8 6 C7.01 6.33 6.02 6.66 5 7 C4.67 7.99 4.34 8.98 4 10 C0 3.375 0 3.375 0 0 Z " fill="#F0D245" transform="translate(62,43)"/>
<path d="M0 0 C0.66 0 1.32 0 2 0 C2 0.66 2 1.32 2 2 C2.99 2.33 3.98 2.66 5 3 C3.35830472 5.02054804 1.69088222 7.02043058 0 9 C-0.33 9 -0.66 9 -1 9 C-1.08886184 5.80097361 -0.91058531 3.07322544 0 0 Z " fill="#F5D028" transform="translate(92,169)"/>
<path d="M0 0 C0.33 0 0.66 0 1 0 C1.08226668 3.04386724 0.97608217 5.07175348 0 8 C-0.34227417 9.33106622 -0.67751743 10.66400079 -1 12 C-1.66 11.67 -2.32 11.34 -3 11 C-3.39253254 6.55129785 -2.15305957 3.85756507 0 0 Z " fill="#F6CE24" transform="translate(62,141)"/>
<path d="M0 0 C2.76544722 3.45680903 4.84921278 7.14341602 7 11 C6.01 10.67 5.02 10.34 4 10 C4 9.34 4 8.68 4 8 C3.01 8 2.02 8 1 8 C0.67 5.36 0.34 2.72 0 0 Z " fill="#F1D02C" transform="translate(107,39)"/>
<path d="M0 0 C1.9375 0.75 1.9375 0.75 4 2 C4.75 4.125 4.75 4.125 5 6 C2.03 5.505 2.03 5.505 -1 5 C-0.67 3.35 -0.34 1.7 0 0 Z " fill="#FBCB18" transform="translate(181,133)"/>
<path d="M0 0 C0.66 0.33 1.32 0.66 2 1 C0.92456217 1.98783194 -0.16073217 2.96493943 -1.25 3.9375 C-2.15492188 4.75541016 -2.15492188 4.75541016 -3.078125 5.58984375 C-5.08467305 7.06212799 -6.57002449 7.57529189 -9 8 C-9 7.34 -9 6.68 -9 6 C-7.36209288 4.95355934 -5.68991979 3.9601817 -4 3 C-2.65368175 2.01755155 -1.31558703 1.02323436 0 0 Z " fill="#F6A700" transform="translate(143,138)"/>
<path d="M0 0 C3.96 1.32 7.92 2.64 12 4 C12 4.33 12 4.66 12 5 C8.37 4.67 4.74 4.34 1 4 C0.67 2.68 0.34 1.36 0 0 Z " fill="#F7D336" transform="translate(168,91)"/>
<path d="M0 0 C3.63 1.65 7.26 3.3 11 5 C6.13924051 6.21518987 6.13924051 6.21518987 3 5 C1.25 3.5625 1.25 3.5625 0 2 C0 1.34 0 0.68 0 0 Z " fill="#F5CE43" transform="translate(74,53)"/>
<path d="M0 0 C1.0625 1.875 1.0625 1.875 2 4 C1.67 4.66 1.34 5.32 1 6 C-2.465 4.02 -2.465 4.02 -6 2 C-6 1.67 -6 1.34 -6 1 C-4.02 0.67 -2.04 0.34 0 0 Z " fill="#F7CF32" transform="translate(60,124)"/>
<path d="M0 0 C0.66 0.33 1.32 0.66 2 1 C1.34 2.98 0.68 4.96 0 7 C-1.32 6.67 -2.64 6.34 -4 6 C-2.68 4.02 -1.36 2.04 0 0 Z " fill="#F5DC63" transform="translate(145,31)"/>
<path d="M0 0 C0.66 0.33 1.32 0.66 2 1 C2 2.98 2 4.96 2 7 C1.01 6.67 0.02 6.34 -1 6 C-1.042721 4.33388095 -1.04063832 2.66617115 -1 1 C-0.67 0.67 -0.34 0.34 0 0 Z " fill="#FEC903" transform="translate(88,172)"/>
<path d="M0 0 C2.0625 2.3125 2.0625 2.3125 4 5 C3.67 5.99 3.34 6.98 3 8 C1.35 6.02 -0.3 4.04 -2 2 C-1.34 2 -0.68 2 0 2 C0 1.34 0 0.68 0 0 Z " fill="#EBD15A" transform="translate(163,169)"/>
<path d="M0 0 C-4.08443115 1.53166168 -7.79455657 0.63081652 -12 0 C-12 -0.33 -12 -0.66 -12 -1 C-3.42857143 -2.42857143 -3.42857143 -2.42857143 0 0 Z " fill="#F8DC5B" transform="translate(52,124)"/>
<path d="M0 0 C0.33 0.99 0.66 1.98 1 3 C0 4 0 4 -1.84765625 4.09765625 C-3.8984375 4.06510417 -5.94921875 4.03255208 -8 4 C-5.33333333 2.66666667 -2.66666667 1.33333333 0 0 Z " fill="#F8D441" transform="translate(69,77)"/>
</svg>
